<svg xmlns="http://www.w3.org/2000/svg" viewBox="0 0 65.2 63.5"><defs><style>.a{opacity:0.08;}.b{fill:#6bbcfc;}.c{fill:#fff;}</style></defs><title>red-f</title><g class="a"><path class="b" d="M30.2,9.1a1.3,1.3,0,0,1-2.2.2h0c-.5-1-.8-2.2-1.9-2.8a1.2,1.2,0,0,0-1.5.2c-.6.7-.1,1.7.3,2.4s.9,1.8.1,2.4a1.2,1.2,0,0,1-1.3,0c-1.1-.7-1.2-2-2-2.8s-1.8-.7-2,.1-.3,2.6.4,3.4a1.7,1.7,0,0,1,.2,1.9c-.7,1.4-2.5.3-3.6,1s-.9,1.6-1.6,2.2a2.4,2.4,0,0,1-2.8-.3c-1.1-.8-1.9-2.1-3.3-2.4a1.6,1.6,0,0,0-1.6.5c-1.1,1,.1,2.7,1.4,3.1s3.6-.1,5.1,1.1a1.7,1.7,0,0,1,.5,2.1c-.5,1.1-1.9.9-2.9,1.3a2.7,2.7,0,0,0-1.4,3.2c.2.7.8,1.4.4,2.2a3,3,0,0,1-.8.8c-1.2.6-2.7.1-3.8,1a1.3,1.3,0,0,0-.6,1.4c.3,1.1,1.8,1.1,2.9.9s2.6-.3,2.9.7-.9,2.1-1.7,2.6a1.8,1.8,0,0,0-.9,1.3c-.4,1.5,1.6,2.1,2.7,2.1a2.6,2.6,0,0,1,1.7.5c1.5,1,.4,2.7.6,4.2s2.5,2.9,4.5,3,4.5-.3,6.2,1.1a2.9,2.9,0,0,1,1.1,2.6c0,1.3.7,3.6,2.3,3.6s2.4-1.9,3.7-1.4a1.5,1.5,0,0,1,.9,1c.5,1.4-.4,2.8.1,4.2a1.9,1.9,0,0,0,1,1c1.1.3,1.9-.9,1.9-2s-.6-2.6-.1-4a1.7,1.7,0,0,1,1.3-.9c1,0,1.4.9,1.9,1.6s1.5,1.1,2,.5,0-1.4.1-2.1a1.8,1.8,0,0,1,2.5-1.3,5.1,5.1,0,0,1,2.5,2.1c.8,1.1,1.7,2.3,3.2,2.4a1.9,1.9,0,0,0,1.7-1c.5-1-.3-2-1.1-2.6s-2-1-2.5-2.1A2.5,2.5,0,0,1,48,46.1c1.3-.6,2.8,0,4.1.8s2.3,1.9,3.8,2.2,3.3-.5,3.3-2A3,3,0,0,0,57,44.8c-1.5-.6-3.3-.7-4.1-2.5a4.3,4.3,0,0,1,.3-3.5c1.3-2.1,4.1-2.6,6.4-1.9s2.3.9,3.6.6a1.6,1.6,0,0,0,1.3-1.1c.4-1.3-1-2.3-2.3-2.5s-2.9.3-4.3.1h-.1a1.8,1.8,0,0,1-.2-3.5l2.4-.6a.9.9,0,0,0,.6-.4c.7-.7-.3-1.5-1.1-1.5s-1.4.4-2.1.4a1.7,1.7,0,0,1-1.2-.2,2.3,2.3,0,0,1-.1-4,16.6,16.6,0,0,1,3.5-1.8,1,1,0,0,0-.3-2h-.1a7.7,7.7,0,0,0-2.8,1.2l-.6.3a.8.8,0,0,1-.6-1.5l.3-.2c.8-.4,1.7-1.2,1.3-2.1s-2-.6-2.7-.3a2.2,2.2,0,0,1-1.4-.2c-1.1-.8-.2-2.2.5-2.9a1.6,1.6,0,0,0,.6-.8c.6-1.5-.7-2.2-1.9-2.4a4.1,4.1,0,0,1-2.4-.8c-.5-.7-.5-1.6-1-2.3a2.3,2.3,0,0,0-2.6-.7A7,7,0,0,0,43.5,9a2,2,0,0,1-2,.2,1.9,1.9,0,0,1-1.2-1.5c-.2-.9.2-2-.5-2.8a1.6,1.6,0,0,0-1.6-.4,2.8,2.8,0,0,0-2,2.4,2.6,2.6,0,0,1-.5,1.2c-.4.4-1,.3-1.6.2a9.4,9.4,0,0,0-1.5-.6,2.4,2.4,0,0,0-2,.7A2.5,2.5,0,0,0,30.2,9.1Z"/><path class="b" d="M5.8,37.4c-.4-.6-1.3-.4-1.9-.2A12.8,12.8,0,0,0,1,38.5c-.5.3-1,.6-1,1.1s.6.9,1.1,1a4.9,4.9,0,0,0,4.2-1.2,2.4,2.4,0,0,0,.6-.9A1.1,1.1,0,0,0,5.8,37.4Z"/><path class="b" d="M12.7,47.8a2,2,0,0,0-.3,1.7,1,1,0,0,0,1.4.7c.3-.1.5-.5.6-.9a4.5,4.5,0,0,0-.1-1.1c-.1-.4-.3-1-.7-1S12.9,47.5,12.7,47.8Z"/><path class="b" d="M25.7,60.9A2.8,2.8,0,0,0,27.2,58,2.3,2.3,0,0,0,26,56.2a2.1,2.1,0,0,0-2.3.6,2.8,2.8,0,0,0-.6,2.9A2.3,2.3,0,0,0,25.7,60.9Z"/><path class="b" d="M33.7,60.1A1.6,1.6,0,0,0,32,61.2a1.7,1.7,0,0,0,1.2,2.3A1.9,1.9,0,0,0,35.4,62,1.8,1.8,0,0,0,33.7,60.1Z"/><path class="b" d="M62.4,20.3a1.4,1.4,0,0,0,.2,1.1,1.4,1.4,0,0,0,1.7.6,1.5,1.5,0,0,0,.9-1.6A1.6,1.6,0,0,0,64,19a1.1,1.1,0,0,0-1.2.2A1.5,1.5,0,0,0,62.4,20.3Z"/><path class="b" d="M24.9,4.1A2.1,2.1,0,0,0,25.3,3,3.6,3.6,0,0,0,25,.7,2,2,0,0,0,22.6.2a2.1,2.1,0,0,0-.9,2.4,2.5,2.5,0,0,0,1.9,1.8A1.3,1.3,0,0,0,24.9,4.1Z"/></g><path class="c" d="M36.7,22.5h2.9V18.1H34.4a4,4,0,0,0-4.1,4v4.2H27.7v4.5h2.6V43.4h5.3V30.8h3.5l.5-4.5h-4V23.6A1.1,1.1,0,0,1,36.7,22.5Z"/></svg>