<svg xmlns="http://www.w3.org/2000/svg" viewBox="0 0 66.7 68"><defs><style>.a{opacity:0.08;}.b{fill:#6bbcfc;}.c{fill:#fff;}</style></defs><title>red-i</title><g class="a"><path class="b" d="M34.4,8.1a3.4,3.4,0,0,1-2.9,2,3.5,3.5,0,0,1-3-1.8c-.5-1.1-.4-2.4-1.3-3.4a1.8,1.8,0,0,0-.9-.6c-1.3-.2-1.9,1.1-1.8,2.2s1.1,2.4,1,3.8a1.8,1.8,0,0,1-.4,1c-.7,1-2,.7-2.9.1s-1.6-1.7-2.9-1.9a1.3,1.3,0,0,0-1.5.7c-.9,1.5,1.9,3.6.7,4.9s-2.3.2-3.4.7-1.3,1.5-1.8,2.3a2.3,2.3,0,0,1-1.2,1,1.8,1.8,0,0,0-1.2,1.3,3.4,3.4,0,0,1-1.4,2.1,1.8,1.8,0,0,0,.9,3.2h.2a1.2,1.2,0,0,1,1,.4c1.1,1.5-.8,2.2-1.8,1.6s-1.5-2.1-2.9-2.4a1.2,1.2,0,0,0-1.3.8c-.2.9.8,1.5,1.6,1.7l.7.2c1.7.9,1,2.4,0,3.2s-1.7,1-2.1,1.9A1.3,1.3,0,0,0,7.2,35c1.2-.1,2.3,1.7,2.1,2.9s-.8,2.7-.6,4.1,1.9,3.1,3.5,4.2,3.2,2.5,3.3,4.3a14.5,14.5,0,0,1-.6,3c-.2,1.3.1,3,1.8,3a2.7,2.7,0,0,0,2.1-.9c.9-1.1,2.8-2.8,4.3-1.8a2,2,0,0,1,.7,1.5c.1,1.7-1.1,3-1.1,4.7a2,2,0,0,0,.6,1.4c1,1,2.5.2,2.9-.9a3.2,3.2,0,0,0,.3-1.7c0-1.2,1.6-1.8,2.2-.8h0a4.5,4.5,0,0,1,.5,2.6l-.3,4.7a3.6,3.6,0,0,0,.4,2.1,1.1,1.1,0,0,0,1.1.5c1-.1,1.1-1.5,1-2.4s-.3-2.8-.5-4.2a4.7,4.7,0,0,1,.3-2.9,1.8,1.8,0,0,1,1.5-.8c1.5.1,1.9,2.6,3.4,2.6s1.7-1.5,1.6-2.7-.3-2.8.9-3.5a2,2,0,0,1,1.7-.1c1.7.6,2.4,2.4,4.1,3.1a2.2,2.2,0,0,0,1.6,0c1.2-.5,1.2-2,.9-3.2a10.6,10.6,0,0,1-1-3c0-1,.9-2.2,1.9-2s1.9.7,2.8.5a2.6,2.6,0,0,0,1.9-1.9,9,9,0,0,1,.3-1.6c.4-1.3,2.1-1.6,3.4-1.4s2.6,1,3.9,1.1,3-.5,3.2-1.9-1.3-2.3-2.5-2.9-2.7-1.5-2.6-2.8,1.3-2.2,1.6-3.4-.6-2.6-1.6-3.5a17.5,17.5,0,0,1-3.3-3.9,4.1,4.1,0,0,1,.4-4.7c.6-.7,1.6-.9,2.3-1.5a2,2,0,0,0,.9-2.4c-.5-.9-1.9-.7-2.9-.3s-2,1.1-3,.7a2.3,2.3,0,0,1-1.4-2.4c-.1-1,.1-2-.1-3a2.1,2.1,0,0,0-1.8-2c-1.5-.1-2.5,1.9-3.9,1.7s-1.7-1.8-1.4-2.9a7.9,7.9,0,0,1,1.7-3.1A26.4,26.4,0,0,0,48,3.8a4.7,4.7,0,0,0,.6-1.5A1.9,1.9,0,0,0,48,.8a1.8,1.8,0,0,0-2,.6,7.4,7.4,0,0,0-.7,2.1,18.7,18.7,0,0,1-1.3,4,3.5,3.5,0,0,1-2.1,2.3,3,3,0,0,1-2.4-.6,13.5,13.5,0,0,0-2.2-1.4C36.5,7.4,34.8,7.3,34.4,8.1Z"/><path class="b" d="M31.6,6.7a2.1,2.1,0,0,0,2.5-1.6,2.1,2.1,0,0,0-1.4-2.5,5,5,0,0,0-1.9,1.3A1.8,1.8,0,0,0,30.5,6,1.4,1.4,0,0,0,31.6,6.7Z"/><path class="b" d="M36.6,4.7a1.9,1.9,0,0,0,1.9.4A3.5,3.5,0,0,0,40,3.9a4.3,4.3,0,0,0,.6-1.8A1.8,1.8,0,0,0,39.9.4,1.7,1.7,0,0,0,38,.2a3.9,3.9,0,0,0-1.1,1.5C36.4,2.7,35.9,3.9,36.6,4.7Z"/><path class="b" d="M14.4,11.2a1.5,1.5,0,0,0-.5,2.3,1.5,1.5,0,0,0,1.9.1,1.4,1.4,0,0,0,.4-1.8A1.5,1.5,0,0,0,14.4,11.2Z"/><path class="b" d="M5.6,19.7a1.9,1.9,0,0,0-1.3.5A2,2,0,0,0,4,22.5a1.8,1.8,0,0,0,2.3.5,1.8,1.8,0,0,0,.8-2.1A2,2,0,0,0,5.6,19.7Z"/><path class="b" d="M4.7,37.3a3.9,3.9,0,0,0-4.4.1l-.3.3c-.1.2.1.5.3.6a4,4,0,0,0,4,.8c.5-.2,1.1-.6.9-1.1S5,37.5,4.7,37.3Z"/><path class="b" d="M10.8,51.6a3.3,3.3,0,0,0,1.1-2.2,1.7,1.7,0,0,0-.5-1.4,1.7,1.7,0,0,0-1.7.1,3.2,3.2,0,0,0-1.3,2.2,1.6,1.6,0,0,0,.8,1.8A1.9,1.9,0,0,0,10.8,51.6Z"/><path class="b" d="M8,44.4a1.1,1.1,0,1,0-1.4,1.5,1.2,1.2,0,0,0,1.3-.2A1.2,1.2,0,0,0,8,44.4Z"/><path class="b" d="M49.1,58.7a1.6,1.6,0,0,0,2-1A1.6,1.6,0,0,0,50,55.8a1.6,1.6,0,0,0-1.8.8A1.7,1.7,0,0,0,49.1,58.7Z"/><path class="b" d="M54.7,51.7a2.2,2.2,0,0,0-2.2,0,1.2,1.2,0,0,0-.1,1.7,3.3,3.3,0,0,0,1.3,1.3l2.5,1.8,1.1.6a1.6,1.6,0,0,0,1.2-.1,1.3,1.3,0,0,0,.5-1.1,1.6,1.6,0,0,0-.4-1.2C57.8,53.2,56.2,52.4,54.7,51.7Z"/><path class="b" d="M66.2,33.4a1.8,1.8,0,0,0-.1-2.5,1.9,1.9,0,0,0-2.5.4,1.5,1.5,0,0,0,.1,2.3A2,2,0,0,0,66.2,33.4Z"/></g><path class="c" d="M36.5,21H28a7.1,7.1,0,0,0-7.1,7v8.6A7.1,7.1,0,0,0,28,43.7h8.5a7.1,7.1,0,0,0,7.1-7.1V28A7.1,7.1,0,0,0,36.5,21Zm4.9,15.6a4.9,4.9,0,0,1-4.9,4.9H28a4.9,4.9,0,0,1-4.9-4.9V28A4.9,4.9,0,0,1,28,23.2h8.5A4.9,4.9,0,0,1,41.4,28Z"/><path class="c" d="M32.2,26.2a6.1,6.1,0,0,0-6,6.1,6.1,6.1,0,1,0,12.1,0A6.1,6.1,0,0,0,32.2,26.2Zm0,10.1a4,4,0,1,1,4-4A4,4,0,0,1,32.2,36.3Z"/><path class="c" d="M37.8,24.9a1.3,1.3,0,0,0-1.3,1.4,1.3,1.3,0,0,0,1.3,1.3,1.3,1.3,0,0,0,1.4-1.3A1.4,1.4,0,0,0,37.8,24.9Z"/></svg>