<svg xmlns="http://www.w3.org/2000/svg" viewBox="0 0 78.5 73"><defs><style>.a{opacity:0.08;}.b{fill:#6bbcfc;}.c{fill:#fff;}</style></defs><title>red-t</title><g class="a"><path class="b" d="M42.8,9.6c-1.1,1.4-3.4.7-4.4-.7S37,5.8,36.2,4.3s-3.1-3.1-4.7-1.8a2.8,2.8,0,0,0-.9,2.6c.3,2.2,1.9,3.5,3.1,5.2s1.5,3.1.8,4.4a2.1,2.1,0,0,1-2.8-.3c-1.1-.9-1.7-2.2-3.1-2.7a2,2,0,0,0-1.7.4c-.9.8-.3,2-.4,3.1s-2,2.7-3.6,3.5-3.3,2.1-3.1,3.8,1,2,1.6,2.9.9,2.4.1,3.1-3.2-.6-4.9-.4A2.3,2.3,0,0,0,14.8,30a2,2,0,0,0,1.4,2.1c1,.4,2.1,0,3,.5a1.3,1.3,0,0,1,.6.7c.5,1.1-1.2,2.1-2.3,2.1a3.5,3.5,0,0,0-1.4.3c-2.5,1.1-.8,3.6.9,3.8s2.8-.5,4.2-.8,3-.3,3.8.9,0,3.1-1.2,4.2-2.6,1.9-3.3,3.3a4.4,4.4,0,0,0,2,5.6,5.9,5.9,0,0,0,6.1-.7c.1-.8,1.8-1,2.4-.4a2.2,2.2,0,0,1,.5,2.2,13.8,13.8,0,0,1-1,2.2c-.7,1.6-.9,3.7.6,4.9a2.3,2.3,0,0,0,3,.2c.9-.8.9-2.1,1-3.2s1.2-2.8,2.7-1.8a1.6,1.6,0,0,1,.8,1c.4.8,1.4,2.1,2.4,1.8s.8-.9,1.3-1.3a2.6,2.6,0,0,1,3.2,0,6.8,6.8,0,0,1,2,2.7c.7,1.6,1.5,3.4,3.3,3.6a2.9,2.9,0,0,0,2.5-1.4c1.2-1.8.5-4.1-.6-5.7a1.6,1.6,0,0,1-.3-1.3c.1-.9.9-1.1,1.5-1.1l7.8-1.1a9.9,9.9,0,0,1,4.2.1c2.1.7,3.7,2.9,5.9,3.2a3.8,3.8,0,0,0,4-2,4,4,0,0,0-.7-4.5c-.9-.9-2.4-1.3-3.6-1.9S69,46.5,69,45.1s1.4-3.1.5-4.4S66.4,40,66,38.6s2.9-3.1,2-4.7S66.5,33,66.6,32a1.1,1.1,0,0,1,1.1-1c2.7-.3,5.7-.2,7.6-2.5a3.2,3.2,0,0,0,.5-3.5c-.8-1.8-3.1-1.9-4.8-1.3a32,32,0,0,1-4.3,1.7c-1.9.5-4.3-.2-4.3-2.5a2.8,2.8,0,0,1,.1-.9,7.8,7.8,0,0,1,2.4-3.3,22.9,22.9,0,0,0,5-10.1c.3-1.6.4-3.5-1.2-4.6a3.4,3.4,0,0,0-2.6-.3,6.3,6.3,0,0,0-3.8,3.7c-1,1.8-2,4.1-4.1,4.4s-2.8-.9-4-1.7l-1.6-.7A3.8,3.8,0,0,1,50,5V4.7c.4-1.8.1-4.1-1.8-4.6a2.4,2.4,0,0,0-2.4.7c-1.3,1.3-1.5,3.1-1.7,4.8A9.4,9.4,0,0,1,42.8,9.6Z"/><path class="b" d="M54.9,6.1a2.8,2.8,0,0,0,.6,1.5l.8.8A1.8,1.8,0,0,0,58,7.9a4.9,4.9,0,0,0,.6-1.7,4.3,4.3,0,0,0,.1-1.6c-.2-.5-.5-1-1-1.1a2.2,2.2,0,0,0-1.8,1A2.5,2.5,0,0,0,54.9,6.1Z"/><path class="b" d="M16.9,16.4a4.2,4.2,0,0,0-3.3.3,2.4,2.4,0,0,0-1.2,2.8,3.6,3.6,0,0,0,2.7,1.9,6.6,6.6,0,0,0,2.8.1,2.7,2.7,0,0,0,2-1.7,2.5,2.5,0,0,0-.8-2.3A3.9,3.9,0,0,0,16.9,16.4Z"/><path class="b" d="M10.1,33.5a1.8,1.8,0,0,0-1.6.1c-.5.3-.6,1.1-.7,1.7a3.9,3.9,0,0,0,.3,2.4,3.1,3.1,0,0,0,2.6,1A3.7,3.7,0,0,0,13,38a1.9,1.9,0,0,0,.8-2.2,3.2,3.2,0,0,0-1.1-1.2A8.5,8.5,0,0,0,10.1,33.5Z"/><path class="b" d="M4,35a2.8,2.8,0,0,0-2,0l-1.8.8A1.6,1.6,0,0,0,1,38a3,3,0,0,0,2.6-.3,3.9,3.9,0,0,0,1-.8,1.5,1.5,0,0,0,.1-1.3A1.3,1.3,0,0,0,4,35Z"/><path class="b" d="M39,66.6a3.7,3.7,0,0,0,3.4.3,2.7,2.7,0,0,0,1.9-2.6,2.4,2.4,0,0,0-1.4-1.7,5.9,5.9,0,0,0-2.3-.4c-1.2.1-2.6.5-3,1.6A2.6,2.6,0,0,0,39,66.6Z"/><path class="b" d="M46.4,72.1a1.6,1.6,0,0,0,1.8.8,1.7,1.7,0,0,0,1.1-1.7,1.8,1.8,0,0,0-1.2-1.6l-1.4.3A2.9,2.9,0,0,0,46.4,72.1Z"/><path class="b" d="M76.7,34.2a3.2,3.2,0,0,0-1.9.5l-1.3.9a1.6,1.6,0,0,0-.6,1.4A2.5,2.5,0,0,0,74,38.8a3.9,3.9,0,0,0,2,.8,2.3,2.3,0,0,0,2-.6,3,3,0,0,0,.3-2.9A2.4,2.4,0,0,0,76.7,34.2Z"/></g><path class="c" d="M57,27a10.5,10.5,0,0,1-2.4.6,6.9,6.9,0,0,0,1.8-2.4,5.2,5.2,0,0,1-2.7,1,5.1,5.1,0,0,0-3.6-1.4,4.9,4.9,0,0,0-4.9,4.9c0,.2.1.5.1.8a12,12,0,0,1-10-5.1,5.6,5.6,0,0,0-.3,3.4,5.5,5.5,0,0,0,1.8,2.9,3.4,3.4,0,0,1-2.2-.7,5.5,5.5,0,0,0,1.2,3.3,5.7,5.7,0,0,0,2.9,1.9,5.8,5.8,0,0,1-2.6.1,7.7,7.7,0,0,0,4.7,3.2c-1.3,1.7-4.7,2.2-6.7,2,5.2,4.4,21,2.5,21-11.8a4.3,4.3,0,0,0-.1-.5A20.9,20.9,0,0,0,57,27Z"/></svg>